<?xml version="1.0" standalone="no"?><!DOCTYPE svg PUBLIC "-//W3C//DTD SVG 1.1//EN" "http://www.w3.org/Graphics/SVG/1.1/DTD/svg11.dtd"><svg t="1504955005412" class="icon" style="" viewBox="0 0 1624 1024" version="1.1" xmlns="http://www.w3.org/2000/svg" p-id="1427" xmlns:xlink="http://www.w3.org/1999/xlink" width="317.1875" height="200"><defs><style type="text/css"></style></defs><path d="M614.4 894.126829c-17.482927 2.497561-32.468293 2.497561-49.95122 2.497561C299.707317 896.62439 82.419512 724.292683 82.419512 512c0-199.804878 192.312195-364.643902 434.57561-382.126829 22.478049-24.97561 47.453659-47.453659 74.926829-67.434146-9.990244 0-19.980488 0-29.970732 0C252.253659 62.439024 0 262.243902 0 512s252.253659 449.560976 564.44878 449.560976c49.95122 0 97.404878-4.995122 142.360976-14.985366C674.341463 931.590244 644.370732 914.107317 614.4 894.126829z" p-id="1428" fill="#1296db"></path><path d="M1043.980488 19.980488c312.195122 0 564.44878 202.302439 564.44878 449.560976 0 142.360976-82.419512 269.736585-209.795122 352.156098 19.980488 129.873171 44.956098 182.321951 44.956098 182.321951-104.897561-17.482927-132.370732-49.95122-169.834146-119.882927-69.931707 24.97561-144.858537 37.463415-227.278049 37.463415-312.195122 0-564.44878-202.302439-564.44878-449.560976S734.282927 19.980488 1043.980488 19.980488z" p-id="1429" fill="#1296db"></path><path d="M217.287805 806.712195C207.297561 966.556098 147.356098 1024 147.356098 1024c124.878049-19.980488 179.82439-62.439024 212.292683-142.360976L217.287805 806.712195z" p-id="1430" fill="#1296db"></path></svg>