<?xml version="1.0" standalone="no"?><!DOCTYPE svg PUBLIC "-//W3C//DTD SVG 1.1//EN" "http://www.w3.org/Graphics/SVG/1.1/DTD/svg11.dtd"><svg t="1504955130161" class="icon" style="" viewBox="0 0 1152 1024" version="1.1" xmlns="http://www.w3.org/2000/svg" p-id="1742" xmlns:xlink="http://www.w3.org/1999/xlink" width="225" height="200"><defs><style type="text/css"></style></defs><path d="M1088 901.166c0 45.5 26.028 84.908 64 104.184v15.938a239.589 239.589 0 0 1-32.5 2.224c-68.008 0-129.348-28.528-172.722-74.264C920.556 956.23 892.776 960 864 960c-159.058 0-288-114.616-288-256s128.942-256 288-256 288 114.616 288 256c0 55.348-19.764 106.592-53.356 148.466-6.824 14.824-10.644 31.312-10.644 48.7z m-857.322-679.98C164.464 274.984 128 344.17 128 416c0 40.298 11.188 79.378 33.252 116.15 22.752 37.92 56.982 72.586 98.988 100.252a127.993 127.993 0 0 1 56.176 87.894 323.6 323.6 0 0 1 3.37 36.124c7.47-6.194 14.75-12.846 21.88-19.976a128.015 128.015 0 0 1 106.658-36.466 507.077 507.077 0 0 0 63.594 4.02v128a632.554 632.554 0 0 1-79.742-5.042C322.198 936.934 190.926 956.656 64 959.552v-26.916c68.536-33.578 128-94.74 128-164.636 0-9.754-0.758-19.33-2.164-28.696C74.04 663.04 0 546.55 0 416 0 186.25 229.23 0 512 0c278.458 0 504.992 180.614 511.836 405.52-41.096-18.316-85.84-29.422-132.262-32.578-11.53-56.068-45.402-108.816-98.252-151.756-35.322-28.698-76.916-51.39-123.628-67.444C619.988 136.662 566.934 128 512 128c-54.932 0-107.988 8.662-157.694 25.742-46.712 16.054-88.306 38.744-123.628 67.444z" fill="#1296db" p-id="1743"></path></svg>